<svg width="83" height="81" viewBox="0 0 83 81" fill="none" xmlns="http://www.w3.org/2000/svg">
<g filter="url(#filter0_d)">
<rect x="10" y="10" width="63" height="60.8696" rx="10" fill="white"/>
</g>
<path d="M31 26.4348H41.32C43.6667 26.4348 45.7467 26.8348 47.56 27.6348C49.3733 28.4081 50.8 29.4748 51.84 30.8348C52.9067 32.1681 53.6933 33.6481 54.2 35.2748C54.7333 36.9014 55 38.6214 55 40.4348C55 41.7681 54.8533 43.0748 54.56 44.3548C54.2667 45.6081 53.7733 46.8615 53.08 48.1148C52.3867 49.3415 51.52 50.4215 50.48 51.3548C49.44 52.2615 48.12 53.0081 46.52 53.5948C44.92 54.1548 43.1333 54.4348 41.16 54.4348H31V26.4348ZM41.8 48.6348C44.0933 48.6348 45.8133 47.8215 46.96 46.1948C48.1067 44.5415 48.68 42.6215 48.68 40.4348C48.68 38.2481 48.12 36.3281 47 34.6748C45.9067 33.0214 44.32 32.1948 42.24 32.1948H37.08V48.6348H41.8Z" fill="black"/>
<defs>
<filter id="filter0_d" x="0" y="0" width="83" height="80.8696" filterUnits="userSpaceOnUse" color-interpolation-filters="sRGB">
<feFlood flood-opacity="0" result="BackgroundImageFix"/>
<feColorMatrix in="SourceAlpha" type="matrix" values="0 0 0 0 0 0 0 0 0 0 0 0 0 0 0 0 0 0 127 0"/>
<feOffset/>
<feGaussianBlur stdDeviation="5"/>
<feColorMatrix type="matrix" values="0 0 0 0 1 0 0 0 0 1 0 0 0 0 1 0 0 0 0.37 0"/>
<feBlend mode="normal" in2="BackgroundImageFix" result="effect1_dropShadow"/>
<feBlend mode="normal" in="SourceGraphic" in2="effect1_dropShadow" result="shape"/>
</filter>
</defs>
</svg>
