<svg width="112" height="122" viewBox="0 0 112 122" fill="none" xmlns="http://www.w3.org/2000/svg">
<rect x="12" y="22" width="100" height="100" rx="50" fill="#010B28"/>
<path d="M80.7498 56.2502H76.4314L73.3048 50H50.6921L47.5685 56.2533L43.2562 56.261C39.8184 56.2671 37.0198 59.0687 37.0168 62.5081L37 87.4996C37 90.9467 39.8031 93.7513 43.2502 93.7513H80.7498C84.1969 93.7513 87 90.9482 87 87.5011V62.5003C86.9999 59.0533 84.1968 56.2502 80.7498 56.2502ZM61.9992 85.9385C55.1065 85.9385 49.4988 80.3308 49.4988 73.4381C49.4988 66.5455 55.1065 60.9377 61.9992 60.9377C68.8918 60.9377 74.4996 66.5455 74.4996 73.4381C74.4996 80.3308 68.8918 85.9385 61.9992 85.9385Z" fill="white"/>
<rect width="50" height="50" rx="25" fill="#010B28" fill-opacity="0.74"/>
<path d="M37.1213 16.1252L21.295 31.9504C20.1231 33.1225 18.222 33.1225 17.0489 31.9504L8.8793 23.7802C7.7069 22.608 7.7069 20.7067 8.8793 19.5343C10.0519 18.3617 11.9529 18.3617 13.125 19.5338L19.1726 25.5815L32.8749 11.8791C34.0475 10.7065 35.9486 10.7074 37.1208 11.8791C38.293 13.0515 38.293 14.9522 37.1213 16.1252Z" fill="white"/>
</svg>
